<svg width="31" height="30" viewBox="0 0 31 30" fill="none" xmlns="http://www.w3.org/2000/svg">
<path d="M11.6167 26.8875C11.6167 28.2625 12.7292 29.375 14.1042 29.375C15.4792 29.375 16.5917 28.2625 16.5917 26.8875H11.6167ZM22.7042 21.65V14.375C22.7042 10.3125 19.8917 6.9125 16.0917 6.0125V5.1125C16.0917 4.0125 15.2042 3.125 14.1042 3.125C13.0042 3.125 12.1167 4.0125 12.1167 5.1125V6.0125C8.31666 6.9125 5.50416 10.3125 5.50416 14.375V21.65L2.85416 24.3V25.625H25.3542V24.3L22.7042 21.65ZM19.1042 16.8875H15.3542V20.6375H12.8542V16.8875H9.10416V14.375H12.8542V10.625H15.3542V14.375H19.1042V16.8875Z" fill="#FF7A00"/>
</svg>
