<svg width="31" height="31" viewBox="0 0 31 31" fill="none" xmlns="http://www.w3.org/2000/svg">
<path d="M25.3053 20.0136C23.7428 20.0136 22.2428 19.7636 20.8428 19.3011C20.4053 19.1636 19.9178 19.2636 19.5678 19.6011L16.8178 22.3511C13.2803 20.5511 10.3803 17.6636 8.58027 14.1136L11.3303 11.3511C11.6803 11.0261 11.7803 10.5386 11.6428 10.1011C11.1803 8.70111 10.9303 7.20111 10.9303 5.63861C10.9303 4.95111 10.3678 4.38861 9.68027 4.38861H5.30527C4.61777 4.38861 4.05527 4.95111 4.05527 5.63861C4.05527 17.3761 13.5678 26.8886 25.3053 26.8886C25.9928 26.8886 26.5553 26.3261 26.5553 25.6386V21.2636C26.5553 20.5761 25.9928 20.0136 25.3053 20.0136ZM26.5553 8.13861H22.8053V4.38861H20.3053V8.13861H16.5553V10.6386H20.3053V14.3886H22.8053V10.6386H26.5553V8.13861Z" fill="#FF7A00"/>
</svg>
