<?xml version="1.0" standalone="no"?>
<!DOCTYPE svg PUBLIC "-//W3C//DTD SVG 20010904//EN"
 "http://www.w3.org/TR/2001/REC-SVG-20010904/DTD/svg10.dtd">
<svg version="1.0" xmlns="http://www.w3.org/2000/svg"
 width="701.000000pt" height="460.000000pt" viewBox="0 0 701.000000 460.000000"
 preserveAspectRatio="xMidYMid meet">

<g transform="translate(0.000000,460.000000) scale(0.100000,-0.100000)"
fill="#000000" stroke="none">
<path d="M4030 3696 c-11 -10 -394 -53 -1430 -160 -778 -81 -1431 -151 -1450
-156 -19 -6 -52 -10 -73 -10 -38 0 -67 -18 -67 -40 0 -6 -23 -45 -51 -86 -410
-608 -324 -1376 213 -1915 394 -395 941 -621 1563 -646 667 -26 1307 210 1739
641 546 544 629 1318 207 1934 -100 146 -192 245 -348 377 -13 11 -23 25 -23
32 0 7 -9 13 -20 13 -11 0 -20 7 -20 15 0 21 -218 22 -240 1z"/>
</g>
</svg>
