<?xml version="1.0" standalone="no"?>
<!DOCTYPE svg PUBLIC "-//W3C//DTD SVG 20010904//EN"
 "http://www.w3.org/TR/2001/REC-SVG-20010904/DTD/svg10.dtd">
<svg version="1.0" xmlns="http://www.w3.org/2000/svg"
 width="209.000000pt" height="179.000000pt" viewBox="0 0 209.000000 179.000000"
 preserveAspectRatio="xMidYMid meet">

<g transform="translate(0.000000,179.000000) scale(0.100000,-0.100000)"
fill="#000000" stroke="none">
<path d="M1055 1544 c-290 -47 -522 -248 -599 -517 -51 -178 -16 -405 85 -554
103 -152 245 -256 414 -305 112 -32 287 -32 398 0 242 69 427 248 498 482 19
60 24 99 24 195 0 106 -3 131 -29 208 -75 228 -267 409 -501 471 -61 17 -236
28 -290 20z m260 -323 c53 -24 83 -55 106 -105 26 -58 24 -105 -9 -167 -22
-43 -38 -59 -81 -81 -68 -36 -120 -36 -189 -2 -85 42 -130 144 -102 229 38
114 170 175 275 126z"/>
<path d="M1222 1118 c-17 -17 -15 -73 3 -88 21 -17 64 -16 82 3 19 18 20 61 3
82 -15 18 -71 20 -88 3z m58 -43 c0 -8 -7 -15 -15 -15 -8 0 -15 7 -15 15 0 8
7 15 15 15 8 0 15 -7 15 -15z"/>
</g>
</svg>
