<?xml version="1.0" standalone="no"?>
<!DOCTYPE svg PUBLIC "-//W3C//DTD SVG 20010904//EN"
 "http://www.w3.org/TR/2001/REC-SVG-20010904/DTD/svg10.dtd">
<svg version="1.0" xmlns="http://www.w3.org/2000/svg"
 width="515.000000pt" height="357.000000pt" viewBox="0 0 515.000000 357.000000"
 preserveAspectRatio="xMidYMid meet">

<g transform="translate(0.000000,357.000000) scale(0.100000,-0.100000)"
fill="#000000" stroke="none">
<path d="M2245 2470 c-566 -59 -1055 -113 -1086 -119 -30 -6 -69 -11 -86 -11
-31 0 -31 0 -40 -67 -44 -361 64 -693 309 -950 283 -296 694 -437 1103 -378
282 40 542 169 728 361 102 106 152 177 217 309 143 291 158 594 44 898 l-26
67 -66 -1 c-37 -1 -530 -50 -1097 -109z"/>
</g>
</svg>
